<svg id="visual" viewBox="0 0 900 600" width="900" height="600" xmlns="http://www.w3.org/2000/svg" xmlns:xlink="http://www.w3.org/1999/xlink" version="1.1"><rect x="0" y="0" width="900" height="600" fill="#F5F5F5"></rect><path d="M0 26L13.7 26C27.3 26 54.7 26 82 32.3C109.3 38.7 136.7 51.3 163.8 51C191 50.7 218 37.3 245.2 42.5C272.3 47.7 299.7 71.3 327 77.3C354.3 83.3 381.7 71.7 409 66.8C436.3 62 463.7 64 491 62C518.3 60 545.7 54 573 58.2C600.3 62.3 627.7 76.7 654.8 75C682 73.3 709 55.7 736.2 54.5C763.3 53.3 790.7 68.7 818 73.8C845.3 79 872.7 74 886.3 71.5L900 69L900 0L886.3 0C872.7 0 845.3 0 818 0C790.7 0 763.3 0 736.2 0C709 0 682 0 654.8 0C627.7 0 600.3 0 573 0C545.7 0 518.3 0 491 0C463.7 0 436.3 0 409 0C381.7 0 354.3 0 327 0C299.7 0 272.3 0 245.2 0C218 0 191 0 163.8 0C136.7 0 109.3 0 82 0C54.7 0 27.3 0 13.7 0L0 0Z" fill="#48c78e" stroke-linecap="round" stroke-linejoin="miter"></path></svg>